<svg xmlns="http://www.w3.org/2000/svg" aria-hidden="true" style="position:absolute;width:0;height:0;overflow:hidden">
    <defs>
        <symbol id="icon-x-close" viewBox="0 0 32 32">
            <path d="M7.799 6.827c-0.326 0.073-0.712 0.408-0.917 0.794-0.096 0.182-0.085 0.594 0.024 0.809 0.050 0.101 1.751 1.845 3.778 3.875l3.687 3.694-3.687 3.694c-2.027 2.031-3.728 3.775-3.778 3.875-0.117 0.232-0.118 0.629-0.003 0.851 0.114 0.221 0.456 0.562 0.677 0.677 0.223 0.114 0.619 0.113 0.851-0.003 0.101-0.050 1.845-1.751 3.875-3.778l3.694-3.687 3.694 3.687c2.031 2.027 3.775 3.728 3.875 3.778 0.232 0.117 0.629 0.118 0.851 0.003 0.221-0.114 0.562-0.456 0.677-0.677 0.114-0.223 0.113-0.619-0.003-0.851-0.050-0.101-1.751-1.845-3.778-3.875l-3.687-3.694 3.687-3.694c2.027-2.031 3.728-3.775 3.778-3.875 0.117-0.232 0.118-0.629 0.003-0.851-0.172-0.277-0.399-0.504-0.668-0.671l-0.009-0.005c-0.223-0.114-0.619-0.113-0.851 0.003-0.101 0.050-1.845 1.751-3.875 3.778l-3.694 3.687-3.694-3.687c-2.031-2.027-3.765-3.721-3.853-3.765-0.133-0.071-0.291-0.112-0.458-0.112-0.070 0-0.137 0.007-0.203 0.021l0.006-0.001z"></path>
        </symbol>    </defs>
</svg>